<svg width="71" height="32" viewBox="0 0 71 32" fill="none" xmlns="http://www.w3.org/2000/svg">
<path d="M2.48591 6.48258C1.99246 5.81715 2.13188 4.87769 2.79731 4.38424C3.46274 3.89079 4.4022 4.0302 4.89565 4.69563L2.48591 6.48258ZM68.351 25.4711C69.0978 25.1126 69.9939 25.4275 70.3523 26.1744C70.7108 26.9212 70.3959 27.8173 69.649 28.1757L68.351 25.4711ZM3.49983 22.3213C3.48727 23.1497 2.8056 23.811 1.97727 23.7984C1.14894 23.7859 0.487617 23.1042 0.500172 22.2759L3.49983 22.3213ZM2.22543 7.42554L0.725604 7.40281L0.725623 7.40161L2.22543 7.42554ZM5.34403 3.61998L5.52355 5.1092L5.52197 5.10939L5.34403 3.61998ZM18.6034 0.51078C19.4258 0.411634 20.1729 0.998009 20.2721 1.82048C20.3712 2.64295 19.7849 3.39007 18.9624 3.48922L18.6034 0.51078ZM3.69078 5.58911C4.89565 4.69563 4.89547 4.69539 4.89534 4.69522C4.89537 4.69526 4.8953 4.69516 4.89535 4.69523C4.89547 4.69539 4.89579 4.69582 4.89633 4.69654C4.8974 4.69798 4.89932 4.70056 4.90208 4.70424C4.90759 4.71162 4.91648 4.72346 4.92868 4.73963C4.9531 4.77197 4.99082 4.82164 5.04155 4.88762C5.14302 5.01957 5.29652 5.21667 5.49973 5.4707C5.90622 5.97884 6.51118 6.71419 7.29615 7.61106C8.86718 9.40605 11.1534 11.8413 14.0069 14.3945C19.7409 19.5251 27.6399 25.0183 36.5375 26.8846L35.9216 29.8207C26.2766 27.7976 17.9062 21.9091 12.0065 16.6302C9.04316 13.9787 6.67139 11.4523 5.03868 9.58687C4.22178 8.65352 3.58842 7.88394 3.15707 7.34471C2.94135 7.07505 2.77604 6.86285 2.66343 6.71643C2.60713 6.64321 2.56399 6.58643 2.53431 6.54711C2.51947 6.52745 2.508 6.51216 2.49992 6.50136C2.49588 6.49596 2.49269 6.49169 2.49035 6.48855C2.48919 6.48698 2.48823 6.4857 2.48749 6.4847C2.48712 6.48421 2.48673 6.48368 2.48654 6.48343C2.4862 6.48297 2.48591 6.48258 3.69078 5.58911ZM36.5375 26.8846C54.7465 30.704 65.7581 26.7156 68.351 25.4711L69.649 28.1757C66.4807 29.6964 54.7977 33.78 35.9216 29.8207L36.5375 26.8846ZM0.500172 22.2759L0.725605 7.40281L3.72526 7.44828L3.49983 22.3213L0.500172 22.2759ZM0.725623 7.40161C0.766821 4.81994 2.54448 2.44377 5.16609 2.13057L5.52197 5.10939C4.63671 5.21515 3.74667 6.10689 3.72524 7.44948L0.725623 7.40161ZM5.16451 2.13076L18.6034 0.51078L18.9624 3.48922L5.52355 5.1092L5.16451 2.13076Z" fill="#5F6575"/>
</svg>
