<svg width="71" height="32" viewBox="0 0 71 32" fill="none" xmlns="http://www.w3.org/2000/svg">
<path d="M68.5141 25.5174C69.0075 26.1828 68.8681 27.1223 68.2027 27.6158C67.5373 28.1092 66.5978 27.9698 66.1044 27.3044L68.5141 25.5174ZM2.64905 6.5289C1.90218 6.88735 1.00615 6.57249 0.64769 5.82563C0.289238 5.07877 0.604103 4.18273 1.35096 3.82427L2.64905 6.5289ZM67.5002 9.67866C67.5127 8.85032 68.1944 8.18901 69.0227 8.20156C69.8511 8.21412 70.5124 8.89579 70.4998 9.72412L67.5002 9.67866ZM68.7746 24.5745L70.2744 24.5972L70.2744 24.5984L68.7746 24.5745ZM65.656 28.38L65.4765 26.8908L65.478 26.8906L65.656 28.38ZM52.3966 31.4892C51.5742 31.5884 50.8271 31.002 50.7279 30.1795C50.6288 29.357 51.2151 28.6099 52.0376 28.5108L52.3966 31.4892ZM67.3092 26.4109C66.1044 27.3044 66.1045 27.3046 66.1047 27.3048C66.1046 27.3047 66.1047 27.3048 66.1046 27.3048C66.1045 27.3046 66.1042 27.3042 66.1037 27.3035C66.1026 27.302 66.1007 27.2994 66.0979 27.2958C66.0924 27.2884 66.0835 27.2765 66.0713 27.2604C66.0469 27.228 66.0092 27.1784 65.9584 27.1124C65.857 26.9804 65.7035 26.7833 65.5003 26.5293C65.0938 26.0212 64.4888 25.2858 63.7039 24.3889C62.1328 22.594 59.8466 20.1587 56.9931 17.6055C51.2591 12.4749 43.3601 6.98171 34.4625 5.11543L35.0784 2.17933C44.7234 4.20239 53.0938 10.0909 58.9935 15.3698C61.9568 18.0213 64.3286 20.5477 65.9613 22.4131C66.7782 23.3465 67.4116 24.1161 67.8429 24.6553C68.0587 24.925 68.224 25.1371 68.3366 25.2836C68.3929 25.3568 68.436 25.4136 68.4657 25.4529C68.4805 25.4725 68.492 25.4878 68.5001 25.4986C68.5041 25.504 68.5073 25.5083 68.5096 25.5114C68.5108 25.513 68.5118 25.5143 68.5125 25.5153C68.5129 25.5158 68.5133 25.5163 68.5135 25.5166C68.5138 25.517 68.5141 25.5174 67.3092 26.4109ZM34.4625 5.11543C16.2535 1.29605 5.24194 5.28443 2.64905 6.5289L1.35096 3.82427C4.51935 2.3036 16.2023 -1.77998 35.0784 2.17933L34.4625 5.11543ZM70.4998 9.72412L70.2744 24.5972L67.2747 24.5517L67.5002 9.67866L70.4998 9.72412ZM70.2744 24.5984C70.2332 27.1801 68.4555 29.5562 65.8339 29.8694L65.478 26.8906C66.3633 26.7848 67.2533 25.8931 67.2748 24.5505L70.2744 24.5984ZM65.8355 29.8692L52.3966 31.4892L52.0376 28.5108L65.4765 26.8908L65.8355 29.8692Z" fill="#5F6575"/>
</svg>
