<svg width="17" height="23" viewBox="0 0 17 23" fill="none" xmlns="http://www.w3.org/2000/svg">
<path d="M4.90002 21H3.90002V22.618L5.34724 21.8944L4.90002 21ZM8.90002 19L9.34724 18.1056L8.90002 17.882L8.45281 18.1056L8.90002 19ZM12.9 21L12.4528 21.8944L13.9 22.618V21H12.9ZM13.9 14V13H11.9V14H13.9ZM3.90002 14V21H5.90002V14H3.90002ZM5.34724 21.8944L9.34724 19.8944L8.45281 18.1056L4.45281 20.1056L5.34724 21.8944ZM8.45281 19.8944L12.4528 21.8944L13.3472 20.1056L9.34724 18.1056L8.45281 19.8944ZM13.9 21V14H11.9V21H13.9ZM14.9 8C14.9 11.3137 12.2137 14 8.90002 14V16C13.3183 16 16.9 12.4183 16.9 8H14.9ZM8.90002 14C5.58632 14 2.90002 11.3137 2.90002 8H0.900024C0.900024 12.4183 4.48175 16 8.90002 16V14ZM2.90002 8C2.90002 4.68629 5.58632 2 8.90002 2V0C4.48175 0 0.900024 3.58172 0.900024 8H2.90002ZM8.90002 2C12.2137 2 14.9 4.68629 14.9 8H16.9C16.9 3.58172 13.3183 0 8.90002 0V2Z" fill="#4B42F4"/>
</svg>
