<svg width="19" height="18" viewBox="0 0 19 18" fill="none" xmlns="http://www.w3.org/2000/svg">
<path fill-rule="evenodd" clip-rule="evenodd" d="M18.0132 7.68477H9.303V10.753H14.8376L14.7958 10.8634C14.5397 12.0825 13.846 13.1714 12.8407 13.9328C11.8353 14.6941 10.5847 15.0776 9.31554 15.0136H9.18814C7.57571 14.9633 6.04823 14.2937 4.93571 13.1495C3.82318 12.0054 3.21493 10.4785 3.24236 8.89872C3.26979 7.31898 3.9307 5.81322 5.0823 4.70676C6.23391 3.6003 7.78375 2.98196 9.39699 2.98534C10.7723 2.98223 12.0989 3.48355 13.1156 4.39057L15.4015 2.3083C13.7816 0.837436 11.6581 0.0139381 9.4492 0H9.29047C6.88313 0.0103955 4.57515 0.941289 2.85851 2.59424C1.14188 4.2472 0.152374 6.49146 0.100933 8.84864C0.0595923 11.2352 0.98792 13.54 2.68171 15.2562C4.3755 16.9724 6.69601 17.9594 9.13279 18H9.32598C14.4826 18 18.0091 14.5227 18.0978 9.35898C18.1073 8.79969 18.0791 8.24041 18.0132 7.68477Z" fill="#4B42F4"/>
</svg>
