<svg width="19" height="18" viewBox="0 0 19 18" fill="none" xmlns="http://www.w3.org/2000/svg">
<path fill-rule="evenodd" clip-rule="evenodd" d="M18.0137 7.68477H9.30345V10.753H14.8381L14.7963 10.8634C14.5401 12.0825 13.8465 13.1714 12.8411 13.9328C11.8357 14.6941 10.5852 15.0776 9.31598 15.0136H9.18858C7.57615 14.9633 6.04868 14.2937 4.93615 13.1495C3.82363 12.0054 3.21538 10.4785 3.24281 8.89872C3.27024 7.31898 3.93114 5.81322 5.08275 4.70676C6.23435 3.6003 7.78419 2.98196 9.39743 2.98534C10.7727 2.98223 12.0993 3.48355 13.1161 4.39057L15.402 2.3083C13.7821 0.837436 11.6586 0.0139381 9.44964 0H9.29092C6.88358 0.0103955 4.57559 0.941289 2.85896 2.59424C1.14232 4.2472 0.152816 6.49146 0.101376 8.84864C0.0600348 11.2352 0.988363 13.54 2.68215 15.2562C4.37594 16.9724 6.69645 17.9594 9.13323 18H9.32642C14.483 18 18.0095 14.5227 18.0983 9.35898C18.1078 8.79969 18.0795 8.24041 18.0137 7.68477Z" fill="#818699"/>
</svg>
