<svg width="177" height="50" viewBox="0 0 177 50" fill="none" xmlns="http://www.w3.org/2000/svg">
<path d="M151.9 19.0653H157.692L149.942 39.4579H143.499L135.749 19.0653H141.745L146.759 35.1759L151.9 19.0653Z" fill="white"/>
<path d="M120.189 39.4578V19.0653H125.045L125.411 23.0624C125.953 21.6487 126.749 20.5629 127.796 19.8027C128.844 19.0398 130.156 18.6584 131.732 18.6584C132.193 18.6584 132.614 18.6991 132.994 18.7805C133.376 18.8618 133.69 18.9712 133.934 19.1059L133.284 23.7947C133.011 23.6866 132.678 23.6053 132.282 23.5506C131.888 23.4972 131.379 23.4692 130.756 23.4692C129.939 23.4692 129.149 23.6676 128.386 24.0642C127.626 24.4584 127.001 25.0559 126.51 25.8594C126.022 26.6604 125.777 27.6724 125.777 28.8954V39.4578H120.189Z" fill="white"/>
<path d="M105.822 39.8647C104.462 39.8647 103.239 39.6206 102.15 39.1324C101.062 38.6416 100.197 37.8598 99.5567 36.788C98.9184 35.7137 98.6006 34.3203 98.6006 32.6078V19.0653H104.189V31.2601C104.189 32.8366 104.515 33.9325 105.166 34.5453C105.819 35.1556 106.759 35.4607 107.983 35.4607C108.553 35.4607 109.108 35.359 109.651 35.1556C110.197 34.9522 110.68 34.6343 111.101 34.1995C111.524 33.7622 111.858 33.1977 112.102 32.5061C112.347 31.8119 112.469 30.9881 112.469 30.0345V19.0653H118.057V39.4579H113.079L112.875 35.9082C112.196 37.2686 111.266 38.2679 110.083 38.9086C108.9 39.5456 107.48 39.8647 105.822 39.8647Z" fill="white"/>
<path d="M95.8564 32.0331C95.3402 33.7762 94.5253 35.2319 93.4103 36.4015C92.294 37.5686 90.9756 38.4382 89.4538 39.0103C87.9307 39.5799 86.2576 39.8647 84.4345 39.8647C81.7697 39.8647 79.466 39.3091 77.5234 38.1967C75.5808 37.0817 74.0856 35.4912 73.038 33.4265C71.9904 31.3593 71.4667 28.8827 71.4667 25.9967C71.4667 23.1158 71.9904 20.6418 73.038 18.5771C74.0856 16.5098 75.5808 14.9194 77.5234 13.8069C79.466 12.692 81.7418 12.1338 84.3531 12.1338C86.2042 12.1338 87.8773 12.3856 89.3725 12.8865C90.8676 13.3887 92.1364 14.1629 93.1814 15.2105C94.229 16.2581 94.9982 17.5574 95.4902 19.106L90.3895 21.2673C89.928 19.6374 89.2212 18.4754 88.2689 17.7837C87.3192 17.0896 86.0974 16.7412 84.6023 16.7412C83.1301 16.7412 81.8435 17.0959 80.7425 17.8041C79.644 18.5097 78.7948 19.5484 78.1947 20.9215C77.5971 22.2945 77.2996 23.9867 77.2996 25.9967C77.2996 27.9838 77.5768 29.6709 78.1337 31.0567C78.693 32.4438 79.5143 33.4914 80.6001 34.1995C81.6884 34.9051 83.022 35.2573 84.6023 35.2573C86.0695 35.2573 87.3395 34.8644 88.4113 34.0775C89.4856 33.288 90.2395 32.0916 90.6743 30.4871L95.8564 32.0331Z" fill="white"/>
<path d="M60.0812 39.8647C57.9352 39.8647 56.065 39.4451 54.472 38.6035C52.8815 37.7593 51.6509 36.549 50.78 34.9725C49.9117 33.396 49.4781 31.4928 49.4781 29.2616C49.4781 27.0316 49.9117 25.1271 50.78 23.5506C51.6509 21.9741 52.8676 20.7663 54.4313 19.9247C55.9938 19.0805 57.7826 18.6584 59.7965 18.6584C61.8611 18.6584 63.6131 19.0742 65.0548 19.9044C66.4991 20.732 67.6001 21.8597 68.3603 23.2862C69.1231 24.7139 69.5045 26.3374 69.5045 28.158C69.5045 28.7047 69.4906 29.2234 69.4639 29.7142C69.4359 30.2024 69.3952 30.6372 69.3418 31.016H53.0684V27.1409H66.8906L64.2004 28.1173C64.2004 26.4061 63.8114 25.089 63.0359 24.166C62.2629 23.2404 61.1695 22.7776 59.7558 22.7776C58.7209 22.7776 57.8297 23.0243 57.0808 23.515C56.3345 24.0032 55.7713 24.7304 55.3925 25.6967C55.0123 26.6604 54.8229 27.8758 54.8229 29.3429C54.8229 30.7846 55.0327 31.9746 55.4535 32.9129C55.873 33.8486 56.4706 34.5491 57.2436 35.0132C58.0191 35.4747 58.9523 35.7048 60.0406 35.7048C61.2369 35.7048 62.2019 35.4747 62.9342 35.0132C63.669 34.5491 64.2411 33.9096 64.648 33.096L69.0977 34.8098C68.6604 35.8675 67.9993 36.7778 67.1144 37.5406C66.2321 38.3034 65.187 38.8819 63.9767 39.2748C62.7663 39.6676 61.467 39.8647 60.0812 39.8647Z" fill="white"/>
<path d="M42.3605 12.8254V32.8112C42.3605 33.7876 42.611 34.5021 43.1132 34.9522C43.6179 35.3997 44.3044 35.6234 45.1728 35.6234C45.8809 35.6234 46.4861 35.5217 46.9883 35.3183C47.493 35.1149 47.9494 34.8377 48.3563 34.4843L49.2513 38.1916C48.6003 38.7103 47.7841 39.1197 46.8052 39.4172C45.825 39.7147 44.7926 39.8647 43.7082 39.8647C42.3478 39.8647 41.1451 39.6613 40.0975 39.2544C39.0499 38.8476 38.2324 38.1954 37.6463 37.2965C37.0628 36.399 36.7716 35.2013 36.7716 33.7062V14.3765L42.3605 12.8254ZM48.8851 19.0653V23.2252H33.0186V19.0653H48.8851Z" fill="white"/>
<path d="M29.0378 16.131C27.8681 16.131 26.996 15.8805 26.4238 15.3783C25.8543 14.8736 25.5695 14.1311 25.5695 13.1509C25.5695 12.144 25.8543 11.3901 26.4238 10.8879C26.996 10.387 27.8681 10.1353 29.0378 10.1353C30.2074 10.1353 31.077 10.387 31.6466 10.8879C32.2187 11.3901 32.506 12.144 32.506 13.1509C32.506 14.1311 32.2187 14.8736 31.6466 15.3783C31.077 15.8805 30.2074 16.131 29.0378 16.131ZM31.8093 19.0653V39.4578H26.2204V19.0653H31.8093Z" fill="white"/>
<path d="M12.2762 12.1338C14.7198 12.1338 16.8658 12.5559 18.7144 13.4001C20.5655 14.2417 22.1432 15.4902 23.4489 17.1481L20.3061 20.7791C19.1937 19.3653 17.9783 18.3266 16.6599 17.6617C15.3402 16.9942 13.8095 16.6599 12.0677 16.6599C10.9286 16.6599 9.98397 16.8099 9.23514 17.1074C8.48885 17.4061 7.94471 17.8015 7.60272 18.2923C7.26327 18.7805 7.09418 19.3234 7.09418 19.9196C7.09418 20.6557 7.37896 21.2762 7.94853 21.7809C8.52064 22.2831 9.50085 22.6963 10.8879 23.0217L15.9021 24.1609C18.5669 24.761 20.4765 25.6534 21.6334 26.8358C22.7891 28.0194 23.3676 29.5489 23.3676 31.4229C23.3676 33.1901 22.9048 34.7055 21.9792 35.9692C21.0562 37.2342 19.7645 38.2005 18.1041 38.8679C16.4463 39.5316 14.5443 39.8647 12.3983 39.8647C10.5192 39.8647 8.79907 39.6409 7.23657 39.1934C5.6728 38.7459 4.27939 38.128 3.05634 37.3372C1.83203 36.5477 0.813669 35.6374 0 34.6063L3.17839 30.8126C3.80517 31.681 4.57943 32.4552 5.50244 33.1367C6.42798 33.8156 7.48194 34.3521 8.66557 34.7487C9.84794 35.1429 11.0926 35.3386 12.3983 35.3386C13.5094 35.3386 14.4541 35.2102 15.2309 34.9522C16.0064 34.6953 16.5912 34.3292 16.9853 33.8537C17.3782 33.3757 17.5752 32.7959 17.5752 32.1145C17.5752 31.4102 17.3362 30.8063 16.8582 30.3041C16.3827 29.7993 15.508 29.4116 14.2341 29.1395L8.76728 27.9139C7.1908 27.5351 5.83807 27.0392 4.70911 26.429C3.58014 25.8162 2.72198 25.0279 2.13588 24.0642C1.55233 23.098 1.26119 21.9487 1.26119 20.6163C1.26119 19.0131 1.69472 17.5727 2.56306 16.2937C3.43394 15.016 4.69131 14.004 6.33645 13.2577C7.98413 12.5089 9.96363 12.1338 12.2762 12.1338Z" fill="white"/>
<path d="M167.577 39.8647C165.431 39.8647 163.56 39.4451 161.967 38.6035C160.377 37.7593 159.146 36.549 158.275 34.9725C157.407 33.396 156.974 31.4928 156.974 29.2616C156.974 27.0316 157.407 25.1271 158.275 23.5506C159.146 21.9741 160.363 20.7663 161.927 19.9247C163.489 19.0805 165.278 18.6584 167.292 18.6584C169.357 18.6584 171.109 19.0742 172.55 19.9044C173.995 20.732 175.096 21.8597 175.856 23.2862C176.619 24.7139 177 26.3374 177 28.158C177 28.7047 176.986 29.2234 176.959 29.7142C176.931 30.2024 176.891 30.6372 176.837 31.016H160.564V27.1409H174.386L171.696 28.1173C171.696 26.4061 171.307 25.089 170.531 24.166C169.758 23.2404 168.665 22.7776 167.251 22.7776C166.216 22.7776 165.325 23.0243 164.576 23.515C163.83 24.0032 163.267 24.7304 162.888 25.6967C162.508 26.6604 162.318 27.8758 162.318 29.3429C162.318 30.7846 162.528 31.9746 162.949 32.9129C163.368 33.8486 163.966 34.5491 164.739 35.0132C165.515 35.4747 166.448 35.7048 167.536 35.7048C168.732 35.7048 169.697 35.4747 170.43 35.0132C171.164 34.5491 171.737 33.9096 172.143 33.096L176.593 34.8098C176.156 35.8675 175.495 36.7778 174.61 37.5406C173.728 38.3034 172.682 38.8819 171.472 39.2748C170.262 39.6676 168.962 39.8647 167.577 39.8647Z" fill="white"/>
</svg>
