<svg width="12" height="28" viewBox="0 0 12 28" fill="none" xmlns="http://www.w3.org/2000/svg">
<path d="M11.2886 7.73475L7.10391 3.44775C6.52014 2.85075 5.48065 2.85075 4.89609 3.44775L0.711424 7.734C0.415214 8.037 0.432499 8.51325 0.749138 8.79675C1.06656 9.081 1.56313 9.0645 1.86012 8.76075L6 4.52025L10.1399 8.7615C10.2947 8.91975 10.5044 9 10.7142 9C10.9067 9 11.0992 8.93325 11.2509 8.7975C11.5675 8.51325 11.5848 8.03775 11.2886 7.73475Z" fill="white"/>
<path d="M5.99979 25C5.58571 25 5.18341 24.8313 4.89662 24.538L0.711799 20.2623C0.415577 19.9593 0.432078 19.4845 0.748729 19.2018C1.06538 18.9205 1.56353 18.9355 1.85897 19.2378L5.99979 23.4678L10.1406 19.2378C10.436 18.9348 10.935 18.9198 11.2509 19.2018C11.5675 19.4845 11.5848 19.9593 11.2886 20.2623L7.10375 24.538C6.81617 24.8313 6.41387 25 5.99979 25Z" fill="white"/>
</svg>
