<svg width="111" height="44" viewBox="0 0 111 44" fill="none" xmlns="http://www.w3.org/2000/svg">
<path d="M107.446 36.0034C107.974 36.6419 107.885 37.5874 107.246 38.1153C106.608 38.6432 105.662 38.5536 105.134 37.9151L107.446 36.0034ZM2.59329 7.92703C1.83236 8.25456 0.949989 7.90322 0.622459 7.14229C0.29493 6.38136 0.646263 5.49899 1.4072 5.17146L2.59329 7.92703ZM107.49 13.0039C107.504 12.1756 108.187 11.5155 109.016 11.5295C109.844 11.5435 110.504 12.2263 110.49 13.0546L107.49 13.0039ZM108.63 34.3293L110.13 34.3546L110.13 34.356L108.63 34.3293ZM103.65 39.7793L103.489 38.288L103.49 38.2878L103.65 39.7793ZM82.3515 43.5906C81.5278 43.6797 80.788 43.0842 80.6989 42.2605C80.6099 41.4369 81.2054 40.697 82.029 40.608L82.3515 43.5906ZM106.29 36.9593C105.134 37.9151 105.134 37.9153 105.135 37.9154C105.134 37.9153 105.134 37.9153 105.134 37.9151C105.134 37.9147 105.133 37.9139 105.132 37.9127C105.13 37.9103 105.127 37.9062 105.122 37.9005C105.113 37.8892 105.098 37.8715 105.078 37.8475C105.037 37.7996 104.976 37.7269 104.893 37.6308C104.729 37.4385 104.48 37.1528 104.153 36.7854C103.497 36.0506 102.524 34.9895 101.262 33.6965C98.7371 31.1093 95.063 27.5994 90.4752 23.9179C81.278 16.5376 68.5147 8.55381 54.053 5.83339L54.6076 2.8851C69.7558 5.73467 82.9725 14.0509 92.3528 21.5781C97.0538 25.3504 100.818 28.9461 103.409 31.6011C104.705 32.9292 105.709 34.0234 106.391 34.7885C106.733 35.1711 106.994 35.4715 107.171 35.6779C107.259 35.7812 107.327 35.8609 107.373 35.9156C107.396 35.943 107.414 35.9641 107.426 35.9788C107.432 35.9862 107.437 35.9919 107.44 35.996C107.442 35.9981 107.443 35.9997 107.444 36.0009C107.445 36.0016 107.445 36.0022 107.446 36.0025C107.446 36.003 107.446 36.0034 106.29 36.9593ZM54.053 5.83339C24.7411 0.319469 6.92382 6.06302 2.59329 7.92703L1.4072 5.17146C6.27666 3.07547 24.6994 -2.74098 54.6076 2.8851L54.053 5.83339ZM110.49 13.0546L110.13 34.3546L107.13 34.3039L107.49 13.0039L110.49 13.0546ZM110.13 34.356C110.067 37.9192 107.365 40.8899 103.81 41.2708L103.49 38.2878C105.535 38.0687 107.094 36.3594 107.13 34.3026L110.13 34.356ZM103.811 41.2706L82.3515 43.5906L82.029 40.608L103.489 38.288L103.811 41.2706Z" fill="#5F6575"/>
</svg>
