<svg width="111" height="44" viewBox="0 0 111 44" fill="none" xmlns="http://www.w3.org/2000/svg">
<path d="M107.446 8.09618C107.974 7.45774 107.885 6.51223 107.246 5.98433C106.608 5.45642 105.662 5.54604 105.134 6.18448L107.446 8.09618ZM2.59329 36.1726C1.83236 35.845 0.949989 36.1964 0.622459 36.9573C0.29493 37.7182 0.646263 38.6006 1.4072 38.9282L2.59329 36.1726ZM107.49 31.0957C107.504 31.924 108.187 32.5841 109.016 32.5701C109.844 32.5561 110.504 31.8733 110.49 31.045L107.49 31.0957ZM108.63 9.77032L110.13 9.74498L110.13 9.74364L108.63 9.77032ZM103.65 4.32031L103.489 5.81162L103.49 5.81178L103.65 4.32031ZM82.3515 0.508995C81.5278 0.419952 80.788 1.01545 80.6989 1.83908C80.6099 2.66271 81.2054 3.40258 82.029 3.49162L82.3515 0.508995ZM106.29 7.14033C105.134 6.18448 105.134 6.18427 105.135 6.18417C105.134 6.18427 105.134 6.18427 105.134 6.18447C105.134 6.18488 105.133 6.18569 105.132 6.18691C105.13 6.18935 105.127 6.19342 105.122 6.19909C105.113 6.21041 105.098 6.22815 105.078 6.25209C105.037 6.29998 104.976 6.37272 104.893 6.46884C104.729 6.66109 104.48 6.9468 104.153 7.31418C103.497 8.04902 102.524 9.11011 101.262 10.4032C98.7371 12.9903 95.063 16.5003 90.4752 20.1817C81.278 27.562 68.5147 35.5458 54.053 38.2662L54.6076 41.2145C69.7558 38.3649 82.9725 30.0487 92.3528 22.5215C97.0538 18.7492 100.818 15.1535 103.409 12.4985C104.705 11.1704 105.709 10.0763 106.391 9.31113C106.733 8.92853 106.994 8.62808 107.171 8.42166C107.259 8.31845 107.327 8.23873 107.373 8.18399C107.396 8.15662 107.414 8.1355 107.426 8.1208C107.432 8.11345 107.437 8.10771 107.44 8.1036C107.442 8.10155 107.443 8.0999 107.444 8.09866C107.445 8.09804 107.445 8.09742 107.446 8.09711C107.446 8.0966 107.446 8.09618 106.29 7.14033ZM54.053 38.2662C24.7411 43.7801 6.92382 38.0366 2.59329 36.1726L1.4072 38.9282C6.27666 41.0241 24.6994 46.8406 54.6076 41.2145L54.053 38.2662ZM110.49 31.045L110.13 9.74498L107.13 9.79567L107.49 31.0957L110.49 31.045ZM110.13 9.74364C110.067 6.18041 107.365 3.20975 103.81 2.82885L103.49 5.81178C105.535 6.03087 107.094 7.74024 107.13 9.79701L110.13 9.74364ZM103.811 2.829L82.3515 0.508995L82.029 3.49162L103.489 5.81162L103.811 2.829Z" fill="#5F6575"/>
</svg>
